<svg xmlns="http://www.w3.org/2000/svg" viewBox="0 0 215.94 541.72"><defs><style>.cls-1{fill:#fff;}</style></defs><title>isotipo</title><g id="Capa_2" data-name="Capa 2"><g id="Modo_de_aislamiento" data-name="Modo de aislamiento"><path class="cls-1" d="M59.14,370.75l-.1-2.52c.56,0,56.25-2.44,70.87-5.18,25.73-4.83,50-28,57.79-55,5.79-20.24,1.36-38.39-12.49-51.11-30.88-28.36-44.1-65-35.37-98.06,7.09-26.85,27.49-46.65,54.63-53,4.12-4.6,9.62-22.75,13.66-36.07.8-2.65,1.56-5.15,2.25-7.35l0-.13c2.38-7.61,4.62-14.79,1.3-20.29-2.82-4.67-9.53-7.91-20.51-9.9-28.08-5.11-43.53-4.44-43.68-4.44l-1.32.07-.06-25.17L71.62,2.6V26.52l-1.74-.71c-.18-.06-5.67-1.72-39.66.77-9.06.66-16,4-20.68,10C-.26,49.16,3.11,69.28,3.15,69.48l-2.49.43C.51,69-2.94,48.49,7.55,35c5.12-6.57,12.69-10.26,22.48-11,26-1.9,35.63-1.41,39.06-.95V.08L148.67,0l.06,25.08c4.33,0,19.19.19,42.93,4.5,11.73,2.14,19,5.76,22.22,11.09,3.91,6.46,1.5,14.18-1,22.35l0,.12c-.69,2.2-1.44,4.69-2.24,7.33-4.43,14.61-9.94,32.78-14.54,37.38l-.25.25-.35.08c-26.39,6.08-46.25,25.26-53.13,51.31-8.49,32.12,4.46,67.84,34.63,95.56,14.59,13.41,19.29,32.46,13.21,53.66-8,27.93-33.12,51.83-59.75,56.82C115.58,368.3,61.44,370.65,59.14,370.75Z"/><polygon class="cls-1" points="85.02 541.72 79.45 368.65 81.97 368.57 85.83 488.59 93.44 367.79 95.96 367.95 85.02 541.72"/></g></g></svg>