<svg xmlns="http://www.w3.org/2000/svg" viewBox="0 0 1192.31 541.72"><defs><style>.cls-1{fill:#231f20;}.cls-2{fill:#6d6e70;}</style></defs><title>logo_negro</title><g id="Capa_2" data-name="Capa 2"><g id="Capa_1-2" data-name="Capa 1"><path class="cls-1" d="M452.38,370.75l-.11-2.52c.56,0,56.26-2.44,70.87-5.18,25.74-4.83,50.05-28,57.79-55,5.8-20.24,1.36-38.39-12.49-51.11-30.87-28.36-44.1-65-35.37-98.06,7.1-26.85,27.5-46.65,54.63-53,4.13-4.6,9.63-22.75,13.67-36.07.8-2.65,1.56-5.15,2.25-7.35l0-.13C606,54.65,608.28,47.47,605,42c-2.83-4.67-9.54-7.91-20.51-9.9-28.08-5.11-43.53-4.44-43.69-4.44l-1.31.07-.07-25.17-74.53.07V26.52l-1.74-.71c-.17-.06-5.66-1.72-39.65.77-9.06.66-16,4-20.68,10-9.81,12.57-6.43,32.69-6.4,32.89l-2.48.43c-.15-.87-3.6-21.42,6.89-34.87,5.12-6.57,12.69-10.26,22.48-11,26-1.9,35.63-1.41,39.06-.95V.08L541.9,0,542,25.08c4.34,0,19.2.19,42.94,4.5,11.73,2.14,19,5.76,22.22,11.09,3.91,6.46,1.5,14.18-1.06,22.35l0,.12c-.69,2.2-1.45,4.69-2.25,7.33-4.42,14.61-9.93,32.78-14.53,37.38l-.25.25-.36.08c-26.38,6.08-46.24,25.26-53.13,51.31-8.48,32.12,4.47,67.84,34.64,95.56,14.59,13.41,19.28,32.46,13.21,53.66-8,27.93-33.13,51.83-59.75,56.82C508.82,368.3,454.68,370.65,452.38,370.75Z"/><polygon class="cls-1" points="478.26 541.72 472.68 368.65 475.21 368.57 479.07 488.59 486.68 367.79 489.19 367.95 478.26 541.72"/><path class="cls-1" d="M80.83,175.53a26.1,26.1,0,0,0-2.62-10.19,22.21,22.21,0,0,0-5.79-7.22,23.54,23.54,0,0,0-8.31-4.25,36,36,0,0,0-10.19-1.39,46,46,0,0,0-17.71,3.12,33.59,33.59,0,0,0-12.47,8.7,36.23,36.23,0,0,0-7.37,13.46A58.93,58.93,0,0,0,14,195.12,62.62,62.62,0,0,0,16.42,213a42.1,42.1,0,0,0,7.42,14.54,35.08,35.08,0,0,0,12.52,9.8A40.53,40.53,0,0,0,54,240.93c.92,0,2.45-.1,4.6-.3a48,48,0,0,0,6.58-1.09,26.08,26.08,0,0,0,5.88-2.07c1.69-.86,2.53-1.95,2.53-3.27V214.61a11.21,11.21,0,0,0-.6-4A5.14,5.14,0,0,0,70.64,208a14.71,14.71,0,0,0-5.1-1.53,81.45,81.45,0,0,0-8.75-.69l.2-3.56c1.58,0,3.31,0,5.19.05s3.74,0,5.59,0,3.76,0,5.54,0,3.4.05,4.85.05,2.7,0,4.15-.05,2.87,0,4.26,0,2.7,0,4,0,2.38-.05,3.37-.05l.3,3.36a22.07,22.07,0,0,0-4.65.89,5.68,5.68,0,0,0-2.82,2,8,8,0,0,0-1.39,3.71,42,42,0,0,0-.35,6v6.34c0,3.16,0,6.21.1,9.15a48.89,48.89,0,0,0,.6,7.17q-8,2.17-16.38,3.86a82,82,0,0,1-16.17,1.68,63.19,63.19,0,0,1-21.32-3.46A50,50,0,0,1,15,233.11,44,44,0,0,1,4,217.83a48.79,48.79,0,0,1-4-19.94q0-12.66,4.5-22.11A44.77,44.77,0,0,1,16.82,160a52.5,52.5,0,0,1,18.3-9.45,79.11,79.11,0,0,1,22.56-3.11c2,0,4.29.1,6.73.29s4.89.48,7.37.84,4.91.78,7.32,1.24,4.6,1,6.58,1.48q-.6,6.35-.65,11.93c0,3.72,0,7.7,0,11.92Z"/><path class="cls-1" d="M155.61,152.78a39,39,0,0,0-6.58.94,8.58,8.58,0,0,0-3.91,2,7,7,0,0,0-1.88,3.71,30.36,30.36,0,0,0-.49,6v62.83a28.24,28.24,0,0,0,.44,5.54,6.19,6.19,0,0,0,1.78,3.41,7.7,7.7,0,0,0,3.76,1.73,33.87,33.87,0,0,0,6.48.49h5.15a38.56,38.56,0,0,0,9.39-.94,14.68,14.68,0,0,0,6.19-3.16,19.85,19.85,0,0,0,4.4-5.89q1.88-3.66,4.16-9l3.75.89c-.52,1.91-1,4-1.48,6.13s-.89,4.32-1.29,6.43-.72,4.1-1,5.94-.43,3.36-.5,4.55H169c-4.35,0-8.11,0-11.28,0s-5.87-.05-8.11-.05-4.19,0-5.84,0-3.1-.05-4.35-.05h-3.46c-1.32,0-2.77,0-4.35.05s-3.17,0-4.75,0-3.09,0-4.5.05-2.59,0-3.52,0l-.29-3.36a39.34,39.34,0,0,0,6.58-.94,8.54,8.54,0,0,0,3.9-2,6.89,6.89,0,0,0,1.88-3.66,30.23,30.23,0,0,0,.5-6.09V161.78a14.79,14.79,0,0,0-.45-4,5,5,0,0,0-1.78-2.62,9.14,9.14,0,0,0-3.86-1.53,48.23,48.23,0,0,0-6.77-.69l.29-3.56c1.06,0,2.36,0,3.91,0s3.22,0,5,0,3.59,0,5.44.05,3.56.05,5.14.05c1.26,0,2.67,0,4.26-.05s3.16-.05,4.75-.05,3.06,0,4.45,0,2.54,0,3.46,0Z"/><path class="cls-1" d="M234.35,228.27a29,29,0,0,0,.44,5.54,6.19,6.19,0,0,0,1.78,3.41,7.74,7.74,0,0,0,3.76,1.73,33.87,33.87,0,0,0,6.48.49H254a37.9,37.9,0,0,0,9.34-.94,14.29,14.29,0,0,0,6.09-3.16,21.12,21.12,0,0,0,4.4-5.89q1.94-3.66,4.21-9l3.85.89c-.52,1.91-1,4-1.48,6.13s-.89,4.32-1.29,6.43-.72,4.1-1,5.94-.42,3.36-.49,4.55q-19.69,0-31.91-.1t-18.25-.1c-1.19,0-2.59,0-4.2.05s-3.29,0-5,0-3.38,0-5,.05-3,0-4.1,0l-.3-3.36a47.4,47.4,0,0,0,7.32-.94,9.5,9.5,0,0,0,4.26-2,6.6,6.6,0,0,0,2-3.66,30.23,30.23,0,0,0,.5-6.09V161.78a14.79,14.79,0,0,0-.45-4,5,5,0,0,0-1.78-2.62,9.14,9.14,0,0,0-3.86-1.53,48.23,48.23,0,0,0-6.77-.69l.3-3.56c1.25,0,2.68,0,4.3,0s3.25,0,4.9,0,3.38,0,5,.05,3.12.05,4.5.05c2.58,0,8,0,16.23-.1s18.73-.09,31.46-.09c-.4,3.36-.69,6.89-.89,10.58s-.33,7.62-.4,11.77l-3.95.1a65.68,65.68,0,0,0-2-8.51A13.66,13.66,0,0,0,266.5,158a11,11,0,0,0-5.14-2.87,33,33,0,0,0-8.22-.84H239q-3,0-3.81.6c-.56.39-.84,1.42-.84,3.06v34.23l33.44-1,.69.69-.2,8.21q-9-.8-17.76-1.09c-5.83-.2-11.23-.36-16.17-.49Z"/><path class="cls-1" d="M387,245.78q-2.58-3.66-5.14-7.08t-5.45-6.87L323.5,169l-.4.2v57.88a38,38,0,0,0,.54,7.27,7.13,7.13,0,0,0,2,4,8,8,0,0,0,4,1.78q2.52.43,6.58.74l-.2,3.56q-3.17,0-7.47-.1c-2.87-.06-5.89-.1-9-.1-2.51,0-5.13,0-7.87.1s-5.26.1-7.57.1l-.29-3.36a62.45,62.45,0,0,0,6.53-.94,7.46,7.46,0,0,0,4.1-2.23,10,10,0,0,0,2.13-5,56.18,56.18,0,0,0,.59-9.3V174q0-4.15-.1-6.73a25.2,25.2,0,0,0-.44-4.2,9.8,9.8,0,0,0-.94-2.72A15,15,0,0,0,314.1,158a16.41,16.41,0,0,0-2-2.17,9,9,0,0,0-2.28-1.49,12.43,12.43,0,0,0-3.16-.89c-1.26-.2-2.81-.36-4.65-.49l.19-3.56c.8,0,2,0,3.52,0s3.28,0,5.19,0,3.89,0,5.94.05,3.95.05,5.74.05l63.31,74.7.3-.2V166.83a37.9,37.9,0,0,0-.54-7.27,7.13,7.13,0,0,0-2-4,7.89,7.89,0,0,0-4.06-1.78,66.58,66.58,0,0,0-6.63-.74l.2-3.57c2.11,0,4.62,0,7.52.1s5.94.1,9.1.1c1.25,0,2.57,0,4-.05l4.1-.1,3.86-.1c1.22,0,2.29,0,3.22,0l.1,3.36a47.76,47.76,0,0,0-6.33,1,7.11,7.11,0,0,0-3.91,2.27,10.52,10.52,0,0,0-2,5.05,56,56,0,0,0-.59,9.3v74.4Z"/><path class="cls-1" d="M460.52,213.33c0-1.92,0-3.55-.1-4.9a19.16,19.16,0,0,0-.64-4.06,28.44,28.44,0,0,0-1.63-4.4q-1.09-2.37-3.07-5.94-2.67-4.74-6.48-11.47T439,166.14c-1.51-2.58-2.82-4.67-3.9-6.29a17,17,0,0,0-3.47-3.86,11.7,11.7,0,0,0-4.3-2.07A36.33,36.33,0,0,0,421,153l.2-3.56q4.16,0,9.15.09t10,.1q4.16,0,8.46-.1t8.46-.09l.29,3.36a25.47,25.47,0,0,0-7.37,1.28,2.89,2.89,0,0,0-2,2.68,7,7,0,0,0,.7,2.77c.46,1.05,1.09,2.34,1.88,3.85l18,33.15,17.42-31.46q1.58-2.88,2.42-4.8a8.59,8.59,0,0,0,.84-3.32c0-1.25-.74-2.16-2.23-2.72a31.24,31.24,0,0,0-7.86-1.23l.2-3.56q3.66,0,7.71.09c2.71.07,5.54.1,8.51.1q3.66,0,7.57-.1t7.57-.09l.3,3.36a35.19,35.19,0,0,0-6.39,1,11.61,11.61,0,0,0-4.5,2.37,22.57,22.57,0,0,0-3.91,4.55q-1.92,2.88-4.69,7.52-5.06,8.41-8.71,14.89t-5.74,10.64c-1.38,2.7-2.44,4.88-3.16,6.53a29.83,29.83,0,0,0-1.59,4.35,15.79,15.79,0,0,0-.54,3.61c0,1.16-.05,2.56-.05,4.21V232a16.84,16.84,0,0,0,.39,4,4.59,4.59,0,0,0,1.79,2.62,9.81,9.81,0,0,0,4.2,1.54,60.59,60.59,0,0,0,7.67.69l-.2,3.56c-1.39,0-2.95,0-4.7,0s-3.55-.05-5.39-.05-3.68,0-5.49,0-3.51-.05-5.1-.05c-1.32,0-2.75,0-4.3.05s-3.12,0-4.7,0-3.17,0-4.75.05-3,0-4.25,0l-.3-3.36a54.07,54.07,0,0,0,7.32-.89,8.27,8.27,0,0,0,4.16-2,7,7,0,0,0,1.83-3.71,34.28,34.28,0,0,0,.44-6.09Z"/><path class="cls-2" d="M593.39,195.12A65.21,65.21,0,0,0,595.77,213a42.19,42.19,0,0,0,7.17,14.54,34.55,34.55,0,0,0,12,9.8,37.62,37.62,0,0,0,17,3.61,35.13,35.13,0,0,0,10.24-1.49,22.66,22.66,0,0,0,8.66-4.84,30.52,30.52,0,0,0,6.18-7.77A97.1,97.1,0,0,0,662.25,216l4,1q-1.68,6.52-2.67,12.26t-1.68,12.27a133.64,133.64,0,0,1-15.49,3.56A92.54,92.54,0,0,1,631,246.37a59.51,59.51,0,0,1-20.63-3.46,48.33,48.33,0,0,1-16.32-9.8,44.36,44.36,0,0,1-10.74-15.28,49.94,49.94,0,0,1-3.86-19.94q0-12.66,4.65-22.11A45.55,45.55,0,0,1,596.71,160a54.12,54.12,0,0,1,18.45-9.45,77.67,77.67,0,0,1,22.16-3.11A106.87,106.87,0,0,1,663,150.8q-.59,6.33-.74,12t-.15,12l-4.15.4a29.66,29.66,0,0,0-2.33-10.14,19.9,19.9,0,0,0-12.61-11.28,31,31,0,0,0-9.3-1.34,45.12,45.12,0,0,0-17.41,3.12,34.92,34.92,0,0,0-12.62,8.7A37,37,0,0,0,596,177.76,54.56,54.56,0,0,0,593.39,195.12Z"/><path class="cls-2" d="M748.72,209.27H715.78l-7.62,19.49q-2,5.64-2,7.12a3.55,3.55,0,0,0,2.43,3.56c1.61.66,4.5,1.09,8.65,1.29l-.29,3.56q-3.66,0-8.22-.1c-3-.06-6-.1-9-.1-2.44,0-5,0-7.57.1s-5.12.1-7.56.1l-.2-3.36a37.32,37.32,0,0,0,6.33-.94,9.67,9.67,0,0,0,4.3-2.38,18.77,18.77,0,0,0,3.47-4.74c1.08-2,2.35-4.7,3.8-8.07l27.41-67a36.46,36.46,0,0,1,2.52-5.19,30.49,30.49,0,0,0,2.33-4.8l6.23-.79c.72,3.17,1.5,6.07,2.32,8.71s1.6,5,2.33,7.22l22.26,64.5a64.77,64.77,0,0,0,2.67,6.83,11.18,11.18,0,0,0,2.77,3.81,8.8,8.8,0,0,0,4,1.83,53.06,53.06,0,0,0,6.28.79l-.3,3.56q-4.15,0-9.15-.1c-3.33-.06-6.68-.1-10-.1-2.77,0-5.57,0-8.41.1s-5.64.1-8.41.1l-.3-3.36a29,29,0,0,0,7.92-1.34,3.47,3.47,0,0,0,2.37-3.51,9.82,9.82,0,0,0-.39-2.52c-.27-1-.6-2-1-3.22Zm-30.67-5.74h28.79l-13-39.18h-.29Z"/><path class="cls-2" d="M805.49,216.79a97.22,97.22,0,0,0,4.21,9.5,30.91,30.91,0,0,0,5.34,7.56,22.78,22.78,0,0,0,7.27,5.05,24.69,24.69,0,0,0,10,1.83,19.23,19.23,0,0,0,7.13-1.29,17.27,17.27,0,0,0,5.74-3.66,16.93,16.93,0,0,0,3.85-5.59,17.56,17.56,0,0,0,1.39-7.07,18,18,0,0,0-1.78-8.31,19.59,19.59,0,0,0-4.75-6,33.7,33.7,0,0,0-6.73-4.4c-2.5-1.25-5.08-2.47-7.71-3.66q-4.46-2-9-4.35a38,38,0,0,1-8.06-5.64,28.08,28.08,0,0,1-5.84-7.52,21.05,21.05,0,0,1-2.27-10.09,23.36,23.36,0,0,1,2.52-11,24.07,24.07,0,0,1,6.83-8.07,30.82,30.82,0,0,1,10-4.94,42.57,42.57,0,0,1,12.12-1.68,65.69,65.69,0,0,1,11.52.94c3.53.62,7.31,1.47,11.33,2.52q-.3,3.16-.49,5.89c-.14,1.81-.22,3.59-.25,5.34s-.07,3.53-.1,5.34,0,3.78,0,5.89l-4.15.39q-.9-10.49-6.39-15.68t-14.79-5.19a18.76,18.76,0,0,0-6.53,1.09,14.69,14.69,0,0,0-5.14,3.16,15,15,0,0,0-3.41,5,16,16,0,0,0-1.24,6.43,18.43,18.43,0,0,0,1.53,8,17.36,17.36,0,0,0,4.21,5.59,27.26,27.26,0,0,0,6.18,4.11q3.51,1.72,7.37,3.41,4.75,2.08,9.55,4.55a42.16,42.16,0,0,1,8.61,5.84,27.87,27.87,0,0,1,6.18,7.82,22,22,0,0,1,2.37,10.48,24.88,24.88,0,0,1-2.77,11.92A27.63,27.63,0,0,1,852,239a32.34,32.34,0,0,1-10.48,5.49,40.22,40.22,0,0,1-12.17,1.88,61.12,61.12,0,0,1-11.28-1.09q-5.84-1.08-12.37-3-.69-6.52-1.68-12.26t-2.67-12.27Z"/><path class="cls-2" d="M923.71,149.61c2.24,0,5.11,0,8.6-.05s7-.05,10.59-.05,7.39,0,11.28,0,7.81,0,11.77,0q-.3,3.45-.54,6.38t-.4,5.73c-.1,1.88-.16,3.78-.2,5.69s0,4,0,6.24l-3.76.19a84.57,84.57,0,0,0-1.92-9,15.8,15.8,0,0,0-3-6,10.83,10.83,0,0,0-5.34-3.32,32.6,32.6,0,0,0-8.91-1H930.53V232a16.78,16.78,0,0,0,.4,4,4.58,4.58,0,0,0,1.78,2.62,9.86,9.86,0,0,0,4.21,1.54,60.4,60.4,0,0,0,7.66.69l-.2,3.56c-1.38,0-3,0-4.69,0s-3.55-.05-5.4-.05-3.67,0-5.49,0-3.51-.05-5.09-.05c-1.32,0-2.76,0-4.31.05s-3.11,0-4.7,0-3.16,0-4.74.05-3,0-4.26,0l-.3-3.36a54,54,0,0,0,7.33-.89,8.23,8.23,0,0,0,4.15-2,7,7,0,0,0,1.83-3.71,33.23,33.23,0,0,0,.45-6.09v-74h-11a33.07,33.07,0,0,0-8.95,1,11.49,11.49,0,0,0-5.49,3.32,15.55,15.55,0,0,0-3.17,6,76.69,76.69,0,0,0-2,9l-3.76-.19v-6.24q0-4.44-.15-8.51c-.1-2.7-.32-5.8-.64-9.29q5.93,0,11.67,0c3.82,0,7.52,0,11.08,0s6.69,0,9.4.05S921.4,149.61,923.71,149.61Z"/><path class="cls-2" d="M1012.54,231.83a34.54,34.54,0,0,0,.19,4,4.3,4.3,0,0,0,1.39,2.72,7.87,7.87,0,0,0,3.71,1.64,39.87,39.87,0,0,0,7.17.64v3.56c-3.16,0-6.4,0-9.69-.1s-6.53-.1-9.7-.1c-1.25,0-2.64,0-4.15.05s-3,0-4.55,0-2.84,0-4.16.05-2.44,0-3.36,0l-.2-3.36a33.81,33.81,0,0,0,6.18-.94,7.74,7.74,0,0,0,3.61-2,7,7,0,0,0,1.73-3.66,33.23,33.23,0,0,0,.45-6.09V161.78a16.38,16.38,0,0,0-.4-4,4.87,4.87,0,0,0-1.63-2.62,8.28,8.28,0,0,0-3.71-1.53,46.39,46.39,0,0,0-6.63-.69l.2-3.56c1,0,2.29,0,3.71,0s2.95,0,4.6,0,3.33,0,5.05.05,3.36.05,4.94.05a59.62,59.62,0,0,0,8-.54,61,61,0,0,1,8.16-.55,73.13,73.13,0,0,1,11.87,1,34.49,34.49,0,0,1,10.74,3.57,21.45,21.45,0,0,1,7.76,7,19.69,19.69,0,0,1,3,11.23,25.84,25.84,0,0,1-1.43,8.61,26.44,26.44,0,0,1-4,7.37,29.34,29.34,0,0,1-6.09,5.83,32.48,32.48,0,0,1-7.76,4.11q3.16,6,6.23,11.58t5.69,10.14q2.63,4.59,4.75,8.06t3.51,5.44a50.78,50.78,0,0,0,3.27,4.11,10.56,10.56,0,0,0,3,2.37,13.86,13.86,0,0,0,3.81,1.24q2.17.39,5.64.69l-.2,3.56c-2,0-4.56,0-7.76-.1s-6.29-.1-9.25-.1c-.93,0-1.93,0-3,.05s-2.1.09-3,.15q-1-2.07-3.07-6.08t-4.94-9.3q-2.88-5.3-6.33-11.53t-7.23-12.66c-.39-.66-.77-1.25-1.13-1.78a4.93,4.93,0,0,0-1.39-1.34,6.78,6.78,0,0,0-2.22-.84,18.07,18.07,0,0,0-3.67-.3h-3c-.53,0-1.18,0-1.93-.05l-2.72-.14Zm0-36.21c.52.06,1.05.11,1.58.15s1,0,1.58,0h3.17q11.67,0,18.05-5.34t6.38-17.31q0-10.09-6.08-14.74T1021,153.77a16.73,16.73,0,0,0-4.79.54,4.84,4.84,0,0,0-2.53,1.63,5.86,5.86,0,0,0-1,2.68,29.32,29.32,0,0,0-.19,3.56Z"/><path class="cls-2" d="M1143.33,147.44a55.7,55.7,0,0,1,19.84,3.41,43.7,43.7,0,0,1,15.48,9.74,44.63,44.63,0,0,1,10,15.29,53.29,53.29,0,0,1,3.61,20,56,56,0,0,1-3.56,20.24,47.6,47.6,0,0,1-10,16,45.13,45.13,0,0,1-15.43,10.49,51.3,51.3,0,0,1-20,3.76,55.51,55.51,0,0,1-19.78-3.41,43.43,43.43,0,0,1-25.58-25,53.3,53.3,0,0,1-3.61-20,56,56,0,0,1,3.56-20.23,47.65,47.65,0,0,1,10-16,45,45,0,0,1,15.43-10.48A51.29,51.29,0,0,1,1143.33,147.44Zm-.59,5.34a39.07,39.07,0,0,0-13.11,2.22,28.63,28.63,0,0,0-11.08,7.18,35.78,35.78,0,0,0-7.67,12.81q-2.87,7.86-2.86,19.14,0,13.26,3.26,22.26a41.7,41.7,0,0,0,8.41,14.5,29.61,29.61,0,0,0,11.53,7.81,36.91,36.91,0,0,0,12.71,2.33A38.83,38.83,0,0,0,1157,238.8a28.56,28.56,0,0,0,11.08-7.17,35.78,35.78,0,0,0,7.67-12.81q2.87-7.87,2.86-19.15,0-13.24-3.26-22.26a41.74,41.74,0,0,0-8.41-14.49,29.64,29.64,0,0,0-11.53-7.82A37.13,37.13,0,0,0,1142.74,152.78Z"/></g></g></svg>